<?xml version="1.0" standalone="no"?>
<!DOCTYPE svg PUBLIC "-//W3C//DTD SVG 20010904//EN"
 "http://www.w3.org/TR/2001/REC-SVG-20010904/DTD/svg10.dtd">
<svg version="1.0" xmlns="http://www.w3.org/2000/svg"
 width="2100.000000pt" height="2100.000000pt" viewBox="0 0 2100.000000 2100.000000"
 preserveAspectRatio="xMidYMid meet">

<g transform="translate(0.000000,2100.000000) scale(0.100000,-0.100000)"
fill="#2576BB" stroke="none">
<path d="M10063 17762 c-3 -15 -15 -19 -49 -20 -66 -1 -143 -13 -150 -23 -3
-5 -34 -9 -70 -9 -36 0 -74 -5 -85 -10 -10 -6 -83 -19 -161 -30 -177 -24 -208
-29 -233 -40 -34 -13 -126 -40 -141 -40 -8 0 -22 -4 -32 -9 -40 -20 -133 -43
-234 -58 -20 -3 -44 -14 -54 -24 -9 -10 -24 -19 -33 -19 -9 0 -41 -9 -71 -21
-30 -12 -66 -23 -80 -26 -14 -3 -34 -12 -45 -19 -11 -8 -29 -14 -42 -14 -12 0
-25 -4 -28 -10 -3 -5 -15 -10 -27 -10 -11 0 -61 -20 -110 -45 -50 -25 -95 -45
-100 -45 -17 0 -176 -81 -189 -96 -6 -8 -19 -14 -28 -14 -18 0 -187 -84 -210
-104 -9 -8 -47 -30 -86 -49 -38 -19 -79 -45 -90 -57 -10 -12 -51 -37 -90 -56
-73 -37 -123 -69 -165 -108 -14 -13 -38 -30 -55 -38 -16 -8 -67 -44 -112 -80
-44 -36 -90 -69 -101 -72 -11 -4 -22 -16 -25 -26 -3 -11 -13 -20 -22 -20 -22
0 -73 -43 -229 -192 -67 -65 -126 -118 -130 -118 -13 0 -153 -139 -211 -210
-29 -36 -87 -100 -129 -143 -42 -43 -76 -84 -76 -92 0 -8 -9 -15 -20 -15 -11
0 -20 -6 -20 -13 0 -8 -11 -24 -25 -37 -14 -13 -25 -31 -25 -39 0 -9 -20 -36
-45 -61 -24 -25 -44 -50 -45 -56 0 -6 -7 -17 -15 -24 -8 -7 -15 -20 -15 -29
-1 -9 -21 -32 -45 -51 -25 -19 -45 -42 -45 -52 0 -9 -3 -18 -7 -20 -14 -6 -93
-129 -93 -144 0 -8 -5 -14 -10 -14 -6 0 -21 -24 -35 -54 -14 -30 -30 -58 -35
-61 -6 -3 -10 -13 -10 -22 0 -8 -11 -24 -24 -34 -14 -11 -36 -44 -50 -74 -15
-29 -31 -57 -36 -60 -6 -3 -10 -15 -10 -26 0 -10 -4 -19 -10 -19 -5 0 -10 -8
-10 -19 0 -10 -6 -24 -14 -30 -19 -16 -76 -128 -76 -151 0 -9 -7 -23 -15 -30
-8 -7 -15 -18 -15 -25 0 -18 -28 -71 -45 -85 -8 -7 -15 -21 -15 -31 0 -10 -11
-39 -25 -65 -14 -26 -25 -53 -25 -61 0 -7 -11 -36 -25 -63 -14 -27 -25 -56
-25 -64 0 -9 -9 -31 -20 -51 -11 -20 -20 -42 -20 -50 0 -9 -4 -23 -9 -33 -12
-24 -32 -83 -38 -112 -3 -14 -12 -34 -19 -45 -8 -11 -14 -27 -14 -35 0 -9 -9
-35 -20 -58 -11 -22 -20 -59 -20 -80 0 -21 -3 -42 -7 -46 -7 -7 -48 -166 -59
-231 -3 -16 -12 -44 -20 -61 -7 -17 -19 -67 -24 -110 -6 -44 -15 -87 -21 -96
-5 -10 -9 -53 -9 -96 0 -43 -4 -82 -9 -87 -5 -6 -11 -32 -14 -60 -12 -132 -29
-252 -38 -267 -12 -23 -12 -773 0 -796 9 -15 26 -135 38 -267 3 -27 9 -54 14
-59 5 -6 9 -36 9 -67 0 -32 4 -60 9 -63 4 -3 11 -34 15 -68 7 -63 20 -117 37
-150 5 -10 9 -31 9 -48 0 -17 4 -38 9 -48 14 -28 29 -84 37 -135 3 -26 10 -50
15 -53 5 -3 9 -19 9 -35 0 -16 9 -47 20 -69 11 -22 20 -44 20 -51 0 -6 6 -25
14 -42 19 -45 46 -136 46 -158 0 -10 5 -21 10 -24 6 -3 10 -15 10 -26 0 -10 4
-27 9 -37 4 -9 14 -33 21 -52 7 -19 19 -53 26 -75 8 -22 19 -49 23 -60 5 -11
12 -29 14 -40 3 -11 15 -45 26 -75 12 -30 21 -62 21 -71 0 -9 7 -22 15 -29 16
-13 45 -67 45 -83 0 -5 6 -23 14 -40 8 -18 16 -41 19 -52 11 -42 39 -109 72
-178 19 -40 35 -76 35 -80 0 -5 6 -23 14 -40 8 -18 17 -43 20 -57 3 -14 16
-40 28 -59 13 -19 31 -46 40 -60 9 -14 17 -34 17 -43 1 -10 6 -18 11 -18 6 0
10 -8 10 -17 0 -10 7 -31 15 -47 8 -15 15 -36 15 -46 0 -9 8 -28 18 -41 10
-13 27 -42 37 -64 11 -22 30 -57 43 -77 12 -21 22 -44 22 -53 0 -22 195 -408
214 -424 9 -7 16 -21 16 -30 0 -9 7 -25 15 -35 8 -11 15 -28 15 -38 0 -10 5
-18 10 -18 6 0 10 -9 10 -20 0 -11 9 -29 20 -40 11 -11 20 -26 20 -34 0 -8 4
-17 9 -20 5 -4 30 -48 55 -100 25 -51 53 -99 61 -106 8 -7 15 -21 15 -31 0
-10 4 -20 10 -24 5 -3 25 -39 45 -80 20 -41 40 -77 45 -80 4 -3 22 -33 40 -67
18 -35 41 -72 51 -84 11 -11 19 -27 19 -36 0 -8 9 -23 20 -33 12 -11 41 -60
66 -109 45 -90 78 -145 108 -178 9 -10 16 -24 16 -32 0 -7 7 -19 15 -26 8 -7
15 -22 15 -33 0 -11 16 -39 35 -63 19 -23 35 -47 35 -52 0 -5 7 -15 16 -23 9
-7 29 -38 45 -68 16 -31 42 -74 58 -96 16 -22 40 -60 52 -85 13 -25 36 -57 51
-72 15 -15 28 -31 28 -37 0 -14 34 -71 43 -71 4 0 7 -8 7 -19 0 -10 7 -24 15
-31 8 -7 15 -18 15 -26 0 -7 9 -16 20 -19 11 -3 20 -14 20 -23 1 -9 14 -35 30
-57 16 -22 36 -55 44 -73 14 -30 42 -69 116 -162 11 -14 20 -30 20 -37 0 -6
17 -32 38 -56 20 -24 46 -60 57 -78 11 -19 27 -46 36 -61 8 -14 41 -60 72
-100 31 -41 57 -79 57 -84 0 -6 13 -23 30 -39 16 -16 30 -36 30 -44 0 -9 25
-45 55 -81 30 -36 59 -74 64 -85 5 -11 18 -29 30 -39 11 -11 21 -25 21 -33 0
-8 16 -30 35 -50 19 -20 35 -40 35 -44 0 -4 16 -25 35 -46 19 -21 35 -47 35
-59 0 -22 29 -54 48 -54 7 0 18 -15 25 -33 8 -17 21 -38 30 -46 10 -7 17 -19
17 -25 0 -7 16 -27 35 -46 19 -19 35 -39 35 -45 0 -6 12 -22 26 -36 14 -13 33
-37 41 -54 9 -16 35 -51 59 -77 24 -26 44 -51 44 -56 0 -4 17 -26 38 -47 33
-36 59 -69 87 -114 6 -8 37 -48 70 -87 33 -39 89 -106 125 -149 36 -43 94
-109 130 -147 35 -39 70 -82 76 -97 6 -14 33 -47 60 -72 27 -25 54 -55 59 -67
18 -39 415 -446 661 -677 142 -134 151 -142 210 -178 28 -18 66 -45 85 -60 57
-47 136 -96 166 -103 15 -4 44 -20 63 -36 31 -25 42 -28 112 -28 59 0 80 4 94
17 22 22 62 43 83 43 21 0 148 80 182 114 15 14 32 26 39 26 13 0 47 27 138
108 30 26 61 51 70 56 18 10 35 28 65 70 9 14 42 41 72 61 59 40 152 135 191
197 14 21 35 43 48 48 21 8 32 20 94 100 13 16 35 35 49 42 15 7 34 25 42 40
15 25 60 77 199 229 34 37 62 72 62 76 0 4 36 46 80 93 44 46 80 88 80 93 0 5
25 36 55 70 113 128 205 243 205 258 0 17 30 49 46 49 5 0 18 17 29 37 11 20
46 65 78 100 31 35 57 68 57 74 0 5 16 23 35 40 19 17 35 39 35 48 0 10 10 26
21 37 19 17 56 67 84 114 6 9 27 33 48 52 20 20 37 44 37 55 0 10 16 34 35 53
19 19 35 39 35 44 0 6 25 41 55 79 30 37 55 73 55 80 0 6 20 32 45 57 24 25
44 50 45 56 0 6 7 17 15 24 8 7 15 19 15 27 0 8 14 26 30 40 17 13 30 31 30
38 0 7 11 27 25 43 14 17 25 34 25 39 0 5 11 20 25 33 14 13 25 28 25 33 0 5
15 27 33 50 19 23 41 58 50 77 8 19 29 48 46 64 17 17 31 34 31 39 0 5 11 22
25 39 14 16 25 35 25 42 0 7 11 23 25 36 14 13 25 29 25 35 0 7 9 20 20 30 11
10 20 22 20 28 0 5 11 22 25 39 14 16 25 35 25 41 0 7 14 28 30 47 32 36 37
46 89 146 17 33 41 69 52 80 12 10 34 44 49 75 16 30 35 61 44 68 9 8 16 19
16 26 0 6 8 19 18 28 15 14 40 57 56 97 3 8 22 35 41 60 19 25 50 77 70 115
20 39 49 88 66 110 16 22 47 75 69 117 22 42 44 79 50 83 5 3 10 14 10 23 0 9
14 31 30 49 17 18 30 39 30 47 0 8 5 18 11 22 6 3 20 25 31 48 24 50 40 80 55
97 6 8 32 56 58 106 25 51 50 95 55 98 12 7 80 150 80 167 0 8 9 23 20 33 11
10 20 23 20 30 0 7 9 20 20 30 11 10 20 26 20 35 0 10 7 23 15 30 8 7 15 23
15 35 0 12 7 28 15 35 8 7 15 21 15 31 0 11 5 19 10 19 6 0 10 8 10 19 0 10 7
24 15 31 17 14 185 347 185 366 0 17 39 92 51 100 5 3 9 12 9 20 0 8 9 23 20
34 11 11 20 29 20 40 0 11 5 20 10 20 6 0 10 10 10 23 0 12 7 31 15 41 8 11
15 30 15 42 0 12 6 27 14 33 23 19 106 200 123 266 2 11 25 59 49 107 24 47
44 93 44 102 0 9 4 24 9 34 12 24 32 82 39 112 3 14 8 27 11 30 11 9 81 160
81 175 0 9 4 23 9 33 14 28 33 85 38 115 3 15 9 27 13 27 4 0 17 33 30 73 12
39 28 87 36 105 8 18 14 45 14 61 0 16 7 34 15 41 8 7 15 22 15 34 0 22 21 88
45 141 7 17 16 44 19 60 11 61 29 141 36 160 13 35 28 89 40 145 7 30 19 67
26 82 8 15 14 47 14 72 0 25 5 48 10 51 6 3 10 23 10 43 0 20 10 89 21 152 12
63 23 153 26 200 2 47 8 89 13 95 14 17 21 441 10 620 -13 221 -24 323 -49
470 -11 66 -21 141 -21 167 0 26 -4 50 -10 53 -5 3 -10 31 -10 61 0 30 -6 67
-14 82 -7 15 -19 52 -25 82 -7 30 -16 64 -21 75 -5 11 -11 34 -14 50 -21 114
-32 164 -39 171 -4 4 -7 20 -7 36 0 16 -9 46 -20 68 -11 22 -20 48 -20 59 0
11 -4 23 -10 26 -5 3 -10 13 -10 22 0 8 -6 29 -13 46 -18 41 -37 96 -44 122
-2 11 -17 47 -33 80 -15 33 -36 86 -45 119 -10 32 -28 77 -41 100 -13 22 -24
51 -24 63 0 12 -6 26 -14 30 -7 4 -23 29 -35 55 -11 26 -25 50 -31 53 -5 3
-10 16 -10 29 0 22 -53 135 -68 145 -4 4 -32 53 -61 111 -29 58 -69 124 -87
147 -19 22 -47 70 -64 105 -33 67 -103 171 -120 176 -5 2 -10 13 -10 23 0 11
-16 35 -36 53 -19 18 -41 42 -47 53 -28 47 -67 101 -111 153 -26 30 -55 69
-63 85 -9 17 -70 85 -137 152 -66 68 -124 131 -128 142 -10 28 -158 180 -193
198 -38 20 -85 63 -85 79 0 7 -8 15 -18 18 -10 4 -55 42 -100 86 -44 44 -85
80 -90 80 -5 0 -19 12 -33 26 -13 14 -35 32 -49 39 -14 7 -36 24 -49 37 -14
12 -36 30 -51 38 -59 34 -100 62 -100 71 0 4 -19 19 -43 33 -23 14 -56 39 -72
56 -16 16 -36 30 -45 30 -9 0 -25 9 -35 20 -10 11 -22 20 -27 20 -5 0 -26 11
-48 25 -22 14 -46 25 -53 25 -7 0 -26 14 -43 31 -16 17 -50 40 -76 52 -27 11
-48 24 -48 29 0 4 -8 8 -18 8 -10 0 -29 11 -42 25 -13 14 -29 25 -35 25 -7 0
-24 9 -38 20 -14 11 -32 20 -41 20 -8 0 -35 11 -60 25 -25 14 -52 25 -61 25
-17 0 -50 17 -80 41 -11 9 -31 20 -45 24 -22 6 -101 42 -140 64 -34 20 -108
49 -150 61 -25 7 -57 18 -72 26 -14 8 -35 14 -46 14 -12 0 -23 4 -27 9 -3 5
-20 13 -38 16 -17 4 -54 19 -82 33 -27 14 -68 29 -90 33 -92 18 -151 32 -170
39 -51 19 -93 30 -113 30 -12 0 -30 4 -40 9 -30 15 -86 33 -117 38 -16 2 -39
8 -50 13 -11 5 -45 11 -75 13 -76 5 -211 27 -235 37 -11 5 -45 11 -75 14 -30
3 -93 10 -140 16 -47 6 -95 12 -108 13 -13 1 -28 10 -33 20 -9 16 -43 17 -485
17 -454 0 -476 -1 -481 -18z m787 -1807 c112 -8 209 -20 214 -25 6 -6 31 -10
57 -10 26 0 51 -4 54 -10 3 -5 24 -10 45 -10 21 0 76 -9 122 -21 46 -11 99
-24 118 -29 19 -5 78 -19 131 -32 52 -13 103 -31 113 -40 10 -10 26 -18 37
-18 11 0 27 -4 37 -9 33 -16 87 -34 122 -38 19 -3 42 -10 50 -17 26 -19 59
-36 73 -36 7 0 20 -9 30 -20 9 -11 24 -20 32 -20 8 0 23 -4 33 -9 9 -5 61 -30
114 -56 54 -25 100 -50 103 -56 4 -5 25 -18 48 -30 79 -39 101 -52 127 -76 14
-13 33 -26 44 -29 10 -3 45 -27 78 -53 33 -25 76 -57 96 -70 21 -13 39 -28 40
-33 2 -4 8 -8 13 -8 29 0 327 -276 484 -450 176 -193 199 -220 211 -250 7 -16
40 -62 73 -102 34 -41 61 -82 61 -91 0 -9 5 -17 10 -17 6 0 10 -7 10 -16 0
-10 16 -36 34 -59 19 -23 43 -58 52 -79 10 -20 21 -36 26 -36 4 0 8 -9 8 -19
0 -11 5 -23 10 -26 12 -7 110 -201 110 -217 0 -5 20 -50 45 -99 25 -49 45 -96
45 -105 0 -8 4 -22 9 -32 10 -19 25 -65 48 -137 8 -27 19 -59 23 -70 25 -68
34 -97 49 -157 9 -37 20 -70 24 -74 4 -4 7 -27 7 -51 0 -25 6 -54 12 -66 7
-12 15 -53 19 -92 13 -136 21 -190 30 -210 16 -36 34 -574 20 -588 -7 -7 -11
-62 -11 -137 0 -69 -4 -130 -9 -135 -5 -6 -11 -39 -14 -75 -13 -146 -26 -239
-36 -258 -6 -11 -11 -34 -11 -49 0 -16 -4 -33 -9 -38 -4 -6 -16 -50 -26 -98
-10 -48 -22 -90 -27 -93 -4 -3 -8 -16 -8 -29 0 -14 -9 -40 -20 -60 -11 -20
-20 -48 -20 -64 0 -16 -7 -34 -15 -41 -8 -7 -15 -25 -15 -40 0 -16 -16 -57
-35 -93 -19 -36 -35 -72 -35 -81 0 -9 -4 -16 -10 -16 -5 0 -10 -9 -10 -19 0
-16 -40 -105 -83 -186 -6 -11 -30 -58 -54 -104 -24 -47 -50 -92 -58 -101 -8
-9 -15 -21 -15 -27 0 -5 -9 -18 -21 -29 -11 -10 -31 -41 -44 -69 -13 -27 -36
-65 -52 -83 -48 -55 -73 -90 -73 -99 0 -5 -11 -20 -25 -33 -15 -14 -41 -48
-60 -76 -19 -29 -71 -88 -115 -133 -44 -45 -80 -84 -80 -86 0 -9 -154 -165
-163 -165 -5 0 -45 -36 -90 -81 -44 -44 -97 -91 -117 -104 -20 -13 -57 -40
-83 -62 -74 -61 -104 -83 -114 -83 -5 0 -20 -12 -34 -26 -13 -14 -58 -43 -100
-64 -41 -21 -81 -45 -88 -54 -8 -9 -19 -16 -26 -16 -8 0 -26 -10 -42 -23 -15
-12 -46 -31 -68 -41 -22 -11 -49 -24 -60 -29 -151 -79 -190 -97 -206 -97 -10
0 -19 -4 -19 -9 0 -5 -10 -12 -22 -16 -13 -3 -32 -10 -43 -15 -11 -5 -65 -26
-120 -45 -55 -20 -109 -40 -120 -45 -11 -5 -31 -11 -45 -14 -50 -10 -115 -29
-132 -37 -10 -5 -29 -9 -43 -9 -14 0 -35 -5 -48 -12 -49 -25 -58 -28 -83 -28
-14 0 -34 -4 -44 -10 -10 -5 -62 -15 -116 -21 -55 -6 -135 -15 -179 -20 -216
-24 -347 -29 -585 -23 -140 3 -259 9 -265 12 -5 4 -39 10 -75 13 -173 18 -277
32 -292 40 -9 5 -30 9 -47 9 -16 0 -33 5 -36 10 -3 6 -16 10 -29 10 -12 0 -27
5 -32 10 -6 6 -44 17 -85 26 -41 8 -78 19 -84 25 -5 5 -24 9 -42 9 -18 0 -33
4 -33 9 0 5 -18 11 -40 15 -22 3 -56 15 -75 26 -20 11 -42 20 -50 20 -8 0 -47
16 -88 35 -41 19 -81 35 -89 35 -9 0 -21 7 -28 15 -7 8 -18 15 -24 15 -10 1
-96 42 -141 68 -11 6 -40 21 -65 32 -25 11 -65 36 -90 55 -25 18 -74 48 -110
66 -36 18 -85 50 -109 71 -25 22 -62 48 -83 60 -21 12 -38 25 -38 30 0 4 -6 8
-13 8 -7 0 -28 16 -47 35 -19 19 -38 35 -43 35 -20 0 -351 301 -378 345 -10
16 -54 65 -97 110 -43 44 -86 93 -96 108 -10 16 -32 45 -51 65 -18 20 -41 53
-52 73 -11 20 -37 59 -60 85 -22 27 -48 65 -59 84 -10 19 -29 48 -41 63 -13
16 -23 33 -23 37 0 5 -17 36 -37 68 -21 32 -69 124 -107 203 -38 79 -73 151
-77 159 -29 51 -48 95 -54 120 -4 17 -11 32 -16 35 -5 4 -9 17 -9 30 0 13 -4
27 -10 30 -5 3 -10 22 -10 40 0 19 -9 49 -20 67 -11 18 -20 42 -20 54 0 11 -7
29 -15 40 -8 10 -15 35 -15 54 0 20 -4 40 -8 45 -5 6 -17 48 -26 95 -9 47 -21
99 -27 116 -5 17 -9 57 -9 90 0 33 -4 64 -9 70 -32 33 -79 700 -52 727 7 7 11
57 11 118 0 59 4 129 10 156 5 26 14 73 21 103 6 30 13 87 16 125 2 39 9 74
14 79 5 6 9 24 9 40 0 17 9 63 19 101 11 39 23 81 26 95 4 14 10 34 15 45 4
11 15 43 23 70 15 48 32 99 47 140 4 11 14 40 21 65 7 25 28 76 46 115 18 38
33 75 33 81 0 6 7 17 15 24 8 7 15 20 15 29 0 17 66 152 108 221 12 19 31 53
43 75 12 22 34 55 49 75 15 19 36 54 46 78 10 23 21 42 26 42 4 0 8 5 8 11 0
6 23 39 51 73 29 33 57 72 63 86 6 14 30 45 53 70 24 25 43 50 43 56 0 13 428
444 441 444 5 0 22 12 38 28 43 41 87 75 186 147 50 36 101 74 115 85 14 11
30 20 37 20 6 0 24 10 40 23 29 23 48 36 97 65 15 9 44 27 63 40 59 39 246
132 264 132 10 0 21 5 24 11 10 15 124 70 165 79 36 8 84 24 135 46 78 33 191
67 305 94 19 4 64 15 100 25 36 9 92 20 125 25 33 5 85 14 115 20 30 5 93 15
140 20 47 6 96 14 110 18 53 15 428 13 630 -3z"/>
<path d="M10380 14831 c-74 -4 -142 -11 -150 -16 -8 -5 -42 -13 -75 -16 -101
-11 -192 -28 -237 -44 -24 -8 -55 -15 -71 -15 -15 0 -35 -4 -45 -9 -9 -5 -48
-19 -87 -31 -38 -12 -94 -35 -123 -51 -29 -16 -58 -29 -63 -29 -10 0 -69 -27
-179 -79 -25 -12 -70 -39 -100 -61 -30 -21 -59 -39 -64 -39 -12 -1 -80 -46
-128 -86 -20 -16 -56 -43 -79 -60 -56 -40 -394 -370 -425 -415 -13 -19 -44
-60 -68 -90 -25 -30 -52 -68 -59 -85 -8 -16 -31 -55 -51 -85 -20 -30 -36 -60
-36 -67 0 -6 -11 -24 -24 -40 -29 -35 -61 -97 -82 -160 -9 -26 -26 -64 -39
-83 -30 -45 -115 -295 -115 -338 0 -10 -4 -22 -9 -27 -34 -34 -73 -370 -74
-620 0 -150 13 -329 33 -437 5 -32 14 -83 18 -113 4 -30 13 -60 20 -67 7 -7
12 -25 12 -40 0 -16 4 -36 9 -46 4 -9 21 -57 36 -107 16 -49 31 -94 35 -100 3
-5 12 -28 19 -50 18 -56 151 -322 167 -336 8 -6 14 -15 14 -20 0 -16 118 -186
169 -245 17 -19 31 -38 31 -42 0 -11 317 -332 365 -369 168 -132 334 -239 479
-310 39 -19 88 -43 109 -54 22 -10 46 -19 54 -19 8 0 36 -11 62 -24 71 -36
218 -84 284 -93 20 -3 40 -9 43 -14 3 -5 23 -9 44 -9 22 0 57 -6 77 -14 67
-25 261 -40 493 -40 215 1 307 9 430 39 30 7 89 18 130 25 41 7 84 16 95 20
11 4 74 25 140 46 66 21 127 43 135 50 8 6 26 15 40 19 84 25 415 212 480 270
14 13 39 31 56 42 17 10 55 37 85 59 63 49 350 336 379 379 11 17 40 57 64 90
64 86 161 241 187 300 8 17 23 44 34 60 12 17 27 44 34 60 7 17 19 43 27 58 8
16 14 35 14 43 0 7 9 29 20 49 11 20 20 44 20 55 0 10 4 21 9 24 8 5 30 69 51
149 25 94 31 119 56 232 32 139 45 282 46 480 1 152 -14 364 -26 384 -4 7 -12
36 -16 64 -24 152 -95 407 -135 487 -13 25 -42 90 -66 145 -24 55 -51 112 -61
127 -10 14 -18 29 -18 32 0 10 -188 291 -232 345 -61 77 -348 370 -378 386
-14 8 -37 25 -52 39 -15 14 -31 26 -36 26 -4 0 -35 22 -68 48 -32 26 -75 55
-94 64 -19 9 -51 27 -70 40 -19 13 -42 27 -50 31 -8 4 -28 16 -45 27 -40 26
-172 90 -185 90 -11 0 -17 2 -106 49 -34 17 -71 31 -82 31 -12 0 -23 4 -26 9
-3 5 -20 11 -38 14 -18 3 -53 11 -78 17 -25 6 -65 15 -90 20 -25 5 -65 14 -90
20 -25 6 -72 13 -105 16 -33 3 -82 11 -110 19 -60 16 -280 24 -465 16z"/>
</g>
</svg>
